<svg xmlns="http://www.w3.org/2000/svg" viewBox="0 0 512 512" role="img" aria-label="Fithub Icon">
  <rect width="512" height="512" rx="112" fill="#2F343B" />

  <path d="M176 100 H350 A26 26 0 0 1 350 152 H176 Z" fill="#FFFFFF" />
  <path d="M176 230 H310 A26 26 0 0 1 310 282 H176 Z" fill="#FFFFFF" />
  <path d="M176 360 H275 A23 23 0 0 1 275 406 H176 Z" fill="#FFFFFF" />

  <line x1="376" y1="126" x2="396" y2="126" stroke="#FFFFFF" stroke-width="12" stroke-linecap="round" />
  <line x1="336" y1="256" x2="356" y2="256" stroke="#FFFFFF" stroke-width="10" stroke-linecap="round" />
  <line x1="298" y1="383" x2="316" y2="383" stroke="#FFFFFF" stroke-width="9" stroke-linecap="round" />

  <circle cx="420" cy="126" r="24" fill="none" stroke="#FFFFFF" stroke-width="12" />
  <circle cx="378" cy="256" r="22" fill="none" stroke="#FFFFFF" stroke-width="10" />
  <circle cx="336" cy="383" r="20" fill="none" stroke="#FFFFFF" stroke-width="9" />

  <rect x="112" y="92" width="72" height="328" rx="30" fill="#FFFFFF" />
</svg>
